 <svg  version="1.0" xmlns="http://www.w3.org/2000/svg"  width="900.000000pt" height="405.000000pt" viewBox="0 0 900.000000 405.000000"  preserveAspectRatio="xMidYMid meet">  <g transform="translate(0.000000,405.000000) scale(0.100000,-0.100000)" fill="#3c26db" stroke="none"> <path d="M6063 4012 c-13 -8 -44 -61 -87 -147 -13 -27 -37 -68 -52 -90 -15 -22 -42 -71 -60 -110 -19 -38 -43 -83 -53 -100 -11 -16 -29 -50 -41 -75 -12 -25 -25 -52 -30 -60 -5 -8 -28 -48 -52 -89 -100 -172 -103 -181 -70 -200 16 -10 16 -12 -2 -43 -39 -69 -190 -377 -246 -503 -31 -70 -69 -155 -86 -189 -8 -16 -14 -34 -14 -40 0 -6 -9 -29 -20 -51 -10 -22 -22 -52 -25 -67 -3 -15 -14 -29 -25 -33 -31 -10 -50 -58 -80 -200 -7 -35 -18 -81 -59 -255 -5 -19 -14 -55 -20 -80 -6 -25 -13 -57 -16 -71 -3 -19 -13 -28 -33 -32 -15 -3 -51 -22 -80 -41 l-52 -36 -20 40 c-19 37 -27 90 -14 102 3 4 19 2 35 -2 57 -17 80 14 34 44 -31 20 -49 20 -97 -1 -59 -26 -64 -93 -12 -156 13 -16 24 -36 24 -45 0 -9 -31 -47 -70 -84 -54 -52 -70 -74 -70 -96 0 -15 5 -33 12 -40 30 -30 167 3 219 52 33 32 35 58 8 123 -12 30 -11 34 11 58 13 14 29 25 36 25 6 0 15 7 18 16 3 9 15 14 28 12 19 -2 24 -10 26 -42 2 -21 10 -48 17 -60 12 -18 12 -39 0 -141 -20 -167 -20 -391 0 -439 18 -43 41 -43 37 0 -2 16 -3 41 -3 57 0 45 0 134 -1 175 0 20 3 60 6 87 4 28 8 88 9 135 3 94 8 110 39 110 11 0 38 14 59 31 36 29 41 30 73 18 53 -19 106 0 141 51 l28 41 27 -29 c25 -27 31 -29 94 -27 l68 2 86 89 c66 69 87 85 90 71 2 -10 -4 -34 -13 -52 -12 -27 -13 -40 -5 -55 11 -20 11 -20 40 2 17 12 30 24 30 28 0 11 128 140 139 140 7 0 9 -19 5 -59 -6 -53 -4 -60 14 -70 24 -13 45 -7 88 26 17 13 34 23 37 23 15 0 5 -43 -22 -97 -17 -32 -39 -80 -51 -108 -12 -27 -28 -64 -36 -82 -17 -37 -18 -59 -4 -68 25 -15 48 10 85 93 70 158 75 171 75 180 0 4 11 32 25 60 14 29 25 56 25 61 0 5 7 22 15 38 31 60 84 180 98 223 8 25 27 72 42 105 14 33 47 112 72 175 25 63 51 129 58 145 55 134 110 267 122 300 8 22 21 51 27 65 7 14 21 51 31 83 32 96 62 68 46 -44 -34 -232 -58 -385 -72 -459 -5 -30 -14 -95 -19 -143 -5 -48 -14 -104 -19 -125 -5 -20 -9 -55 -10 -77 0 -22 -5 -62 -11 -90 -6 -27 -14 -72 -19 -100 -5 -27 -12 -58 -16 -67 -4 -9 -12 -43 -20 -75 -7 -32 -20 -84 -29 -116 -20 -71 -20 -72 0 -91 14 -14 18 -14 37 -1 22 15 57 96 57 131 0 25 26 110 46 146 8 14 14 33 14 41 0 8 7 20 15 27 8 7 15 21 15 32 0 19 22 65 107 228 58 111 143 261 167 295 12 16 26 38 31 47 36 62 175 249 229 308 23 25 61 70 86 99 97 116 292 290 425 379 100 67 251 141 357 177 44 14 69 21 193 47 64 13 325 13 390 0 110 -23 151 -34 183 -48 41 -19 76 -15 80 9 6 28 -16 45 -66 53 -26 3 -52 11 -59 16 -11 9 -68 21 -183 38 -80 12 -249 12 -310 0 -25 -4 -74 -13 -110 -20 -35 -6 -69 -15 -75 -19 -5 -5 -26 -12 -45 -16 -147 -29 -404 -175 -591 -336 -99 -85 -157 -143 -273 -274 -39 -44 -77 -86 -84 -94 -7 -8 -21 -26 -30 -40 -9 -14 -35 -48 -57 -76 -94 -113 -191 -271 -291 -473 -36 -72 -71 -135 -76 -138 -15 -9 -29 18 -22 41 11 37 23 100 38 195 9 52 20 124 26 160 19 111 41 271 50 355 4 44 13 129 20 190 11 106 10 110 -9 127 -39 31 -71 6 -120 -92 -12 -25 -26 -52 -30 -60 -28 -53 -41 -83 -41 -91 0 -5 -13 -37 -29 -71 -16 -35 -43 -99 -61 -143 -17 -44 -37 -93 -45 -110 -16 -36 -36 -84 -60 -145 -21 -56 -53 -129 -66 -152 -5 -10 -9 -23 -9 -28 0 -10 -12 -41 -50 -125 -38 -84 -50 -115 -50 -125 0 -5 -4 -18 -9 -28 -6 -9 -21 -42 -35 -72 -46 -102 -134 -173 -153 -124 -3 9 2 40 12 69 19 57 15 75 -16 75 -19 0 -83 -46 -131 -93 -25 -24 -35 -21 -43 13 -4 17 -11 30 -16 30 -16 0 -62 -32 -106 -73 -49 -46 -80 -46 -67 1 13 47 10 76 -8 80 -19 4 -48 -44 -48 -80 0 -13 -7 -36 -15 -52 -8 -15 -15 -34 -15 -42 0 -20 -41 -54 -66 -54 -25 0 -34 17 -34 66 0 70 -39 54 -112 -43 -28 -39 -45 -53 -63 -53 -14 0 -25 3 -25 8 0 18 45 90 78 125 32 33 42 37 84 37 41 0 48 3 48 19 0 27 -26 51 -55 51 -35 0 -125 -74 -168 -138 -68 -102 -150 -174 -178 -156 -14 8 -3 106 32 279 49 246 83 369 133 480 13 27 31 71 40 97 10 26 45 101 78 165 100 193 239 464 270 526 16 32 36 60 46 63 35 11 45 21 76 77 17 31 37 62 44 69 7 7 12 17 12 24 0 16 55 125 86 171 14 21 37 61 50 88 14 28 34 64 44 80 11 17 24 39 30 50 6 11 21 38 34 60 13 22 35 63 50 90 15 28 39 67 53 88 22 31 25 43 17 65 -5 15 -18 28 -29 30 -11 2 -27 10 -35 17 -20 18 -62 27 -77 17z m-1213 -2603 c25 -45 -9 -90 -78 -104 -54 -11 -53 18 4 76 26 27 52 49 56 49 4 0 12 -9 18 -21z"/> <path d="M4715 2854 c-166 -28 -229 -46 -400 -115 -139 -57 -420 -212 -506 -280 -20 -16 -41 -29 -45 -29 -5 0 -22 -13 -39 -28 -16 -15 -43 -36 -60 -46 -69 -45 -308 -272 -382 -363 -21 -26 -46 -57 -56 -68 -11 -11 -23 -29 -28 -40 -5 -11 -21 -40 -34 -64 -14 -24 -25 -51 -25 -60 0 -35 -30 -61 -69 -61 -21 0 -51 -4 -67 -9 -16 -5 -56 -17 -89 -26 -33 -10 -76 -24 -95 -31 -19 -7 -69 -22 -110 -34 -41 -12 -83 -25 -92 -31 -10 -5 -23 -9 -30 -9 -7 0 -24 -6 -38 -13 -14 -7 -54 -24 -90 -37 -36 -13 -76 -30 -90 -37 -14 -7 -31 -13 -38 -13 -7 0 -24 -7 -37 -16 -14 -9 -32 -13 -42 -10 -13 5 1 25 69 94 82 82 163 176 200 232 10 14 31 44 48 68 16 23 30 46 30 49 0 4 6 14 14 22 7 9 24 43 37 76 12 33 27 64 31 70 15 17 9 154 -8 187 -40 78 -170 168 -242 168 -16 0 -34 6 -40 12 -9 9 -66 14 -180 16 -138 3 -189 0 -297 -18 -71 -12 -133 -23 -136 -25 -3 -2 -52 -13 -110 -25 -114 -23 -198 -45 -244 -65 -16 -6 -57 -20 -90 -29 -54 -16 -171 -58 -250 -91 -16 -7 -50 -20 -75 -30 -25 -10 -94 -43 -155 -72 -283 -137 -431 -237 -602 -404 -200 -197 -229 -335 -84 -402 40 -19 64 -22 181 -21 232 1 323 19 291 58 -16 19 -86 22 -128 5 -15 -6 -69 -13 -119 -16 -255 -12 -306 94 -140 289 132 156 428 356 706 477 30 13 69 30 85 37 131 57 322 126 385 139 19 4 41 11 50 16 23 12 119 40 170 50 25 4 79 15 120 24 86 19 163 30 309 46 130 14 301 -8 396 -51 85 -37 145 -118 145 -193 0 -35 -24 -123 -39 -141 -5 -6 -25 -42 -46 -81 -21 -38 -50 -85 -66 -103 -16 -18 -29 -36 -29 -40 0 -4 -12 -20 -27 -36 -16 -16 -35 -40 -44 -53 -9 -13 -75 -86 -149 -164 -128 -135 -179 -174 -260 -200 -65 -20 -162 -60 -182 -74 -12 -8 -29 -15 -37 -15 -26 0 -490 -226 -567 -277 -28 -18 -56 -33 -63 -33 -14 0 -15 59 -1 95 6 14 17 59 26 98 15 72 28 123 59 247 9 36 20 85 25 110 8 41 22 101 66 275 16 65 33 239 26 268 -5 20 -45 23 -60 5 -5 -7 -12 -40 -15 -73 -12 -126 -38 -268 -83 -435 -8 -30 -21 -86 -29 -125 -20 -99 -41 -190 -59 -260 -9 -33 -23 -98 -31 -145 -22 -121 -21 -119 -88 -151 -89 -41 -258 -136 -267 -150 -3 -4 -23 -17 -45 -29 -22 -12 -52 -29 -66 -38 -76 -50 -156 -103 -174 -116 -80 -60 -106 -80 -155 -118 -31 -24 -82 -71 -114 -104 -134 -142 -142 -218 -24 -239 36 -7 48 -4 158 30 123 39 440 208 675 360 61 39 130 83 155 98 25 15 58 38 74 52 16 14 33 25 37 25 9 0 101 60 109 71 3 4 30 24 60 45 59 40 269 197 310 232 14 11 66 54 115 95 50 41 111 94 136 118 51 49 158 143 192 169 35 27 86 51 151 70 86 26 253 84 401 140 62 24 112 40 124 40 7 0 27 6 44 13 18 8 66 24 107 37 41 12 89 29 106 37 47 22 67 14 77 -32 14 -60 88 -126 169 -151 54 -16 92 -19 266 -18 145 1 202 -2 199 -10 -2 -6 -40 -29 -85 -52 -44 -23 -112 -62 -151 -88 -39 -25 -75 -46 -80 -46 -6 0 -14 -6 -18 -13 -4 -7 -41 -34 -80 -60 -40 -26 -78 -53 -85 -60 -7 -7 -32 -25 -55 -41 -24 -16 -43 -32 -43 -37 0 -5 -14 -15 -30 -24 -44 -23 -261 -241 -298 -300 -35 -57 -48 -118 -33 -157 20 -52 141 -84 225 -59 17 5 54 16 82 25 29 9 57 16 64 16 7 0 26 7 43 14 18 8 64 26 102 39 39 13 86 33 107 43 20 11 72 37 115 58 43 22 85 45 93 52 8 7 27 16 43 19 42 11 34 -11 -25 -70 -95 -93 -168 -185 -168 -211 0 -35 42 -33 70 3 11 16 40 52 63 82 23 29 51 68 63 85 32 47 224 236 259 253 16 9 56 33 88 54 32 22 63 39 69 39 5 0 27 13 47 28 20 16 65 45 101 65 98 56 312 198 335 222 22 24 102 83 133 99 24 12 32 23 32 43 0 24 -2 25 -39 20 -22 -3 -66 -17 -98 -32 -151 -71 -225 -108 -236 -119 -6 -6 -30 -23 -52 -36 -45 -26 -133 -94 -207 -158 -27 -23 -52 -42 -56 -42 -7 0 -33 -23 -119 -100 -55 -51 -113 -93 -158 -117 -22 -11 -53 -28 -70 -37 -16 -9 -75 -37 -130 -62 -55 -25 -137 -64 -183 -86 -45 -22 -95 -43 -110 -48 -15 -4 -72 -25 -127 -44 -63 -23 -127 -39 -174 -43 -70 -6 -75 -5 -92 18 -25 32 -24 48 8 109 29 56 198 232 290 303 133 102 249 188 263 195 22 11 103 65 118 79 7 7 18 13 24 13 6 0 36 18 68 39 31 22 79 51 106 66 27 14 72 39 99 56 28 16 88 40 135 55 47 14 96 30 110 36 14 5 57 21 95 33 92 30 125 46 126 59 3 22 -3 41 -14 48 -13 8 -65 1 -82 -12 -5 -4 -23 -10 -40 -14 -16 -4 -43 -13 -60 -21 -16 -7 -48 -21 -70 -30 -22 -9 -49 -20 -60 -25 -125 -56 -205 -70 -388 -70 -235 0 -360 36 -404 115 -22 39 -30 85 -15 85 4 0 14 5 22 10 13 8 12 11 -4 23 -18 13 -18 17 -6 47 26 62 132 195 263 328 72 72 136 132 142 132 6 0 29 18 50 41 22 22 59 51 83 65 23 14 42 28 42 32 0 4 26 23 58 42 31 19 68 44 82 57 14 13 29 23 34 23 4 0 41 19 80 43 122 74 254 135 421 193 22 8 49 19 59 25 29 17 127 31 254 36 143 5 246 -14 305 -57 44 -32 81 -39 90 -16 15 38 -22 72 -108 101 -35 12 -260 47 -275 44 -3 -1 -41 -8 -85 -15z m-171 -1492 c3 -5 -3 -15 -12 -23 -26 -22 -138 -89 -150 -89 -5 0 -12 -6 -15 -13 -3 -7 -33 -27 -67 -46 -35 -18 -69 -39 -77 -47 -8 -8 -19 -12 -24 -8 -13 7 -1 24 17 24 8 0 14 5 14 10 0 6 6 10 13 10 6 0 28 15 47 33 36 34 43 39 110 75 23 13 61 37 83 53 42 31 53 34 61 21z m-2599 -121 c3 -6 -10 -21 -30 -34 -19 -13 -52 -39 -73 -58 -20 -19 -55 -46 -77 -61 -23 -15 -58 -46 -80 -68 -21 -22 -44 -40 -50 -40 -5 0 -30 -18 -55 -40 -25 -22 -48 -40 -52 -40 -5 0 -25 -15 -45 -33 -21 -18 -51 -41 -68 -52 -16 -10 -43 -29 -60 -42 -53 -42 -166 -123 -171 -123 -3 0 -38 -25 -79 -55 -40 -30 -78 -55 -85 -55 -15 0 -9 68 14 160 33 130 36 134 136 181 36 17 83 40 105 51 199 103 580 288 593 288 5 0 15 7 22 15 14 17 46 20 55 6z m-952 -477 c4 -4 3 -12 -1 -18 -8 -13 -29 -85 -42 -145 -8 -35 -7 -49 4 -67 13 -19 13 -23 -2 -36 -25 -22 -322 -198 -422 -251 -47 -25 -98 -52 -115 -61 -16 -9 -61 -29 -100 -46 -38 -17 -81 -37 -95 -44 -41 -22 -94 -28 -114 -13 -18 13 -18 15 -1 48 19 35 193 219 209 219 5 0 27 15 50 33 23 18 61 46 86 62 25 17 56 40 70 53 14 12 33 25 43 28 10 3 47 26 83 50 35 24 67 44 70 44 3 0 25 12 48 28 22 15 57 35 77 46 19 10 53 31 75 47 39 27 65 35 77 23z"/> <path d="M7568 2586 c-10 -7 -21 -28 -24 -47 -4 -19 -17 -65 -29 -104 -13 -38 -31 -99 -40 -135 -9 -36 -30 -108 -46 -160 -16 -52 -34 -115 -40 -140 -8 -35 -25 -59 -75 -108 -36 -35 -70 -62 -77 -59 -19 6 -20 66 -2 113 20 53 13 84 -19 84 -17 0 -29 -12 -47 -45 -13 -25 -27 -45 -31 -45 -5 0 -8 -6 -8 -13 0 -24 -104 -157 -122 -157 -23 0 -23 16 3 122 23 94 21 118 -9 118 -27 0 -61 -95 -79 -220 -5 -39 25 -90 54 -90 32 0 90 43 128 96 35 48 41 53 50 38 37 -65 72 -74 125 -33 70 54 69 53 85 33 12 -16 17 -17 34 -7 13 8 22 9 26 3 3 -6 28 -10 54 -10 40 0 52 5 79 33 35 37 72 120 80 181 9 75 -53 142 -93 102 -20 -19 -55 -21 -55 -3 0 15 37 125 49 147 5 9 12 36 16 60 4 24 11 51 16 60 10 19 30 102 36 158 5 45 -6 54 -39 28z m10 -524 c5 -36 -26 -122 -60 -164 -16 -21 -33 -38 -37 -38 -18 0 -51 43 -51 66 0 32 34 101 68 137 33 35 75 34 80 -1z"/> <path d="M7747 2238 c-25 -39 -30 -83 -11 -99 14 -12 19 -10 41 15 18 21 23 38 21 65 -4 43 -30 53 -51 19z"/> <path d="M7692 2056 c-22 -48 -36 -144 -26 -173 20 -57 97 -38 184 47 53 52 74 91 65 121 -9 29 -22 23 -52 -23 -42 -67 -93 -108 -133 -108 -25 0 -26 24 -4 68 19 38 15 86 -7 90 -9 1 -20 -8 -27 -22z"/> <path d="M3380 1793 c-8 -2 -22 -7 -30 -11 -8 -3 -33 -10 -54 -16 -22 -6 -41 -17 -44 -24 -3 -11 9 -13 59 -9 132 11 173 24 162 53 -5 14 -60 18 -93 7z"/> <path d="M2358 1238 c-32 -20 -39 -21 -62 -9 -31 17 -52 4 -61 -39 -4 -16 -19 -56 -34 -87 -53 -111 -56 -122 -38 -140 25 -25 43 -9 83 74 65 134 125 181 167 132 27 -31 49 -8 45 45 -3 38 -5 41 -33 43 -17 2 -46 -7 -67 -19z"/> <path d="M2570 1021 c-24 -45 -3 -97 37 -89 26 5 47 49 39 81 -5 22 -12 27 -36 27 -19 0 -33 -7 -40 -19z"/> </g> </svg> 